<svg width="187" height="60" viewBox="0 0 187 60" fill="none" xmlns="http://www.w3.org/2000/svg">
<path d="M65.5461 15.2979C65.5461 16.4979 65.2712 17.5479 64.584 18.2979C63.7593 19.1979 62.7972 19.6479 61.5602 19.6479C60.3232 19.6479 59.3611 19.1979 58.5365 18.2979C57.7118 17.3979 57.2995 16.3479 57.2995 14.9979C57.2995 13.6479 57.7118 12.5979 58.5365 11.6979C59.3611 10.7979 60.3232 10.3479 61.5602 10.3479C62.11 10.3479 62.6598 10.4979 63.2095 10.7979C63.7593 11.0979 64.1716 11.3979 64.4465 11.8479L63.7593 12.5979C63.2095 11.8479 62.5223 11.5479 61.5602 11.5479C60.7356 11.5479 59.9109 11.8479 59.3611 12.5979C58.6739 13.1979 58.399 14.0979 58.399 15.1479C58.399 16.1979 58.6739 17.0979 59.3611 17.6979C60.0484 18.2979 60.7356 18.7479 61.5602 18.7479C62.5223 18.7479 63.2095 18.4479 63.8968 17.6979C64.3091 17.2479 64.584 16.6479 64.584 15.8979H61.5602V14.6979H65.5461V15.2979ZM71.8684 11.5479H68.1575V14.3979H71.5936V15.4479H68.1575V18.2979H71.8684V19.4979H67.0579V10.4979H71.8684V11.5479ZM76.4041 19.4979H75.3045V11.5479H72.968V10.4979H78.7406V11.5479H76.4041V19.4979ZM82.7264 19.4979V10.4979H83.826V19.4979H82.7264ZM88.499 19.4979H87.3995V11.5479H85.063V10.4979H90.6981V11.5479H88.3616V19.4979H88.499ZM101.556 18.2979C100.731 19.1979 99.7694 19.6479 98.5324 19.6479C97.2954 19.6479 96.3333 19.1979 95.5086 18.2979C94.684 17.3979 94.2717 16.3479 94.2717 14.9979C94.2717 13.6479 94.684 12.5979 95.5086 11.6979C96.3333 10.7979 97.2954 10.3479 98.5324 10.3479C99.7694 10.3479 100.731 10.7979 101.556 11.6979C102.381 12.5979 102.793 13.6479 102.793 14.9979C102.793 16.3479 102.381 17.3979 101.556 18.2979ZM96.3333 17.5479C96.8831 18.1479 97.7077 18.5979 98.5324 18.5979C99.357 18.5979 100.182 18.2979 100.731 17.5479C101.281 16.9479 101.694 16.0479 101.694 14.9979C101.694 13.9479 101.419 13.0479 100.731 12.4479C100.182 11.8479 99.357 11.3979 98.5324 11.3979C97.7077 11.3979 96.8831 11.6979 96.3333 12.4479C95.7835 13.0479 95.3712 13.9479 95.3712 14.9979C95.3712 16.0479 95.6461 16.9479 96.3333 17.5479ZM104.305 19.4979V10.4979H105.542L109.528 17.5479V10.4979H110.627V19.4979H109.528L105.267 12.1479V19.4979H104.305Z" fill="white" stroke="#A5F3FC" stroke-opacity="0.5" stroke-width="0.238889" stroke-miterlimit="10"/>
<path d="M93.9959 32.6978C90.6973 32.6978 88.0858 35.3978 88.0858 39.1478C88.0858 42.7478 90.6973 45.5978 93.9959 45.5978C97.2945 45.5978 99.9059 42.8978 99.9059 39.1478C99.9059 35.2478 97.2945 32.6978 93.9959 32.6978ZM93.9959 42.8978C92.2091 42.8978 90.6973 41.2478 90.6973 38.9978C90.6973 36.7478 92.2091 35.0978 93.9959 35.0978C95.7826 35.0978 97.2945 36.5978 97.2945 38.9978C97.2945 41.2478 95.7826 42.8978 93.9959 42.8978ZM81.2137 32.6978C77.9151 32.6978 75.3036 35.3978 75.3036 39.1478C75.3036 42.7478 77.9151 45.5978 81.2137 45.5978C84.5123 45.5978 87.1237 42.8978 87.1237 39.1478C87.1237 35.2478 84.5123 32.6978 81.2137 32.6978ZM81.2137 42.8978C79.4269 42.8978 77.9151 41.2478 77.9151 38.9978C77.9151 36.7478 79.4269 35.0978 81.2137 35.0978C83.0004 35.0978 84.5123 36.5978 84.5123 38.9978C84.5123 41.2478 83.0004 42.8978 81.2137 42.8978ZM65.9575 34.6478V37.3478H71.8676C71.7301 38.8478 71.1804 40.0478 70.4931 40.7978C69.6685 41.6978 68.2941 42.7478 65.9575 42.7478C62.2466 42.7478 59.4977 39.5978 59.4977 35.5478C59.4977 31.4978 62.384 28.3478 65.9575 28.3478C67.8817 28.3478 69.3936 29.2478 70.4931 30.2978L72.2799 28.3478C70.768 26.8478 68.8438 25.6478 66.095 25.6478C61.147 25.6478 56.8863 30.1478 56.8863 35.5478C56.8863 40.9478 61.147 45.4478 66.095 45.4478C68.8438 45.4478 70.768 44.5478 72.4173 42.5978C74.0667 40.7978 74.6164 38.2478 74.6164 36.2978C74.6164 35.6978 74.6164 35.0978 74.479 34.6478H65.9575ZM128.356 36.7478C127.807 35.2478 126.432 32.6978 123.409 32.6978C120.385 32.6978 117.911 35.2478 117.911 39.1478C117.911 42.7478 120.385 45.5978 123.684 45.5978C126.295 45.5978 127.945 43.7978 128.494 42.7478L126.57 41.2478C125.883 42.2978 125.058 43.0478 123.684 43.0478C122.309 43.0478 121.484 42.4478 120.797 41.0978L128.631 37.4978L128.356 36.7478ZM120.385 38.8478C120.385 36.4478 122.172 35.0978 123.409 35.0978C124.371 35.0978 125.333 35.6978 125.608 36.4478L120.385 38.8478ZM113.925 44.9978H116.537V26.2478H113.925V44.9978ZM109.802 34.0478C109.115 33.2978 108.015 32.5478 106.641 32.5478C103.754 32.5478 101.005 35.3978 101.005 38.9978C101.005 42.5978 103.617 45.2978 106.641 45.2978C108.015 45.2978 109.115 44.5478 109.664 43.7978H109.802V44.6978C109.802 47.0978 108.565 48.4478 106.641 48.4478C105.129 48.4478 104.029 47.2478 103.754 46.1978L101.555 47.2478C102.242 48.8978 103.892 50.9978 106.778 50.9978C109.802 50.9978 112.276 49.0478 112.276 44.3978V32.9978H109.802V34.0478ZM106.778 42.8978C104.991 42.8978 103.479 41.2478 103.479 38.9978C103.479 36.7478 104.991 35.0978 106.778 35.0978C108.565 35.0978 109.939 36.7478 109.939 38.9978C109.939 41.2478 108.565 42.8978 106.778 42.8978ZM140.315 26.2478H134.129V44.9978H136.741V37.9478H140.315C143.2 37.9478 145.949 35.6978 145.949 32.0978C145.949 28.4978 143.2 26.2478 140.315 26.2478ZM140.451 35.2478H136.741V28.7978H140.451C142.376 28.7978 143.475 30.5978 143.475 31.9478C143.338 33.5978 142.239 35.2478 140.451 35.2478ZM156.258 32.5478C154.334 32.5478 152.41 33.4478 151.722 35.3978L154.059 36.4478C154.609 35.3978 155.433 35.0978 156.395 35.0978C157.769 35.0978 159.007 35.9978 159.144 37.4978V37.6478C158.732 37.3478 157.632 36.8978 156.533 36.8978C154.059 36.8978 151.585 38.3978 151.585 41.0978C151.585 43.6478 153.646 45.2978 155.845 45.2978C157.632 45.2978 158.457 44.3978 159.144 43.4978H159.282V44.9978H161.756V37.7978C161.481 34.4978 159.144 32.5478 156.258 32.5478ZM155.983 42.8978C155.158 42.8978 153.921 42.4478 153.921 41.2478C153.921 39.7478 155.433 39.2978 156.67 39.2978C157.769 39.2978 158.319 39.5978 159.007 39.8978C158.732 41.6978 157.357 42.8978 155.983 42.8978ZM170.414 32.9978L167.528 41.0978H167.39L164.366 32.9978H161.618L166.154 44.3978L163.542 50.6978H166.154L173.163 32.9978H170.414ZM147.323 44.9978H149.936V26.2478H147.323V44.9978Z" fill="white"/>
<path d="M14.6962 11.25C14.2838 11.7 14.1464 12.45 14.1464 13.35V46.5C14.1464 47.4 14.4213 48.15 14.8336 48.6L14.9711 48.75L32.014 30.15V29.85L14.6962 11.25Z" fill="url(#paint0_linear_7_3)"/>
<path d="M37.5125 36.4478L31.8773 30.2978V29.8478L37.5125 23.6978L37.6499 23.8478L44.3846 28.0478C46.3088 29.2478 46.3088 31.1978 44.3846 32.3978L37.5125 36.4478Z" fill="url(#paint1_linear_7_3)"/>
<path d="M37.6475 36.2987L31.8749 29.9987L14.6945 48.7487C15.3817 49.4987 16.3438 49.4987 17.5808 48.8987L37.6475 36.2987Z" fill="url(#paint2_linear_7_3)"/>
<path d="M37.6475 23.6999L17.5808 11.2498C16.3438 10.4998 15.3817 10.6498 14.6945 11.3998L31.8749 29.9999L37.6475 23.6999Z" fill="url(#paint3_linear_7_3)"/>
<path opacity="0.2" d="M37.51 36.1482L17.5808 48.4482C16.4812 49.1982 15.5191 49.0482 14.8319 48.4482L14.6945 48.5983L14.8319 48.7482C15.5191 49.3483 16.4812 49.4983 17.5808 48.7482L37.51 36.1482Z" fill="#164E63"/>
<path opacity="0.12" d="M14.6962 48.4487C14.2838 47.9987 14.1464 47.2487 14.1464 46.3487V46.4987C14.1464 47.3987 14.4213 48.1487 14.8336 48.5987V48.4487H14.6962ZM44.3838 31.9487L37.5117 36.1487L37.6491 36.2987L44.3838 32.0987C45.3459 31.4987 45.7583 30.7487 45.7583 29.9987C45.7583 30.7487 45.2085 31.3487 44.3838 31.9487Z" fill="#164E63"/>
<path opacity="0.25" d="M17.5825 11.3992L44.3838 28.0492C45.2085 28.6492 45.7583 29.2492 45.7583 29.9992C45.7583 29.2492 45.3459 28.4992 44.3838 27.8992L17.5825 11.2492C15.6583 10.0492 14.1464 10.9492 14.1464 13.3492V13.4992C14.1464 11.2492 15.6583 10.1992 17.5825 11.3992Z" fill="#A5F3FC" fill-opacity="0.5"/>
<defs>
<linearGradient id="paint0_linear_7_3" x1="30.3647" y1="13.065" x2="5.28615" y2="36.0427" gradientUnits="userSpaceOnUse">
<stop stop-color="#00A0FF"/>
<stop offset="0.007" stop-color="#00A1FF"/>
<stop offset="0.26" stop-color="#00BEFF"/>
<stop offset="0.512" stop-color="#00D2FF"/>
<stop offset="0.76" stop-color="#00DFFF"/>
<stop offset="1" stop-color="#00E3FF"/>
</linearGradient>
<linearGradient id="paint1_linear_7_3" x1="46.9054" y1="29.9993" x2="13.6483" y2="29.9993" gradientUnits="userSpaceOnUse">
<stop stop-color="#FFE000"/>
<stop offset="0.409" stop-color="#FFBD00"/>
<stop offset="0.775" stop-color="#FFA500"/>
<stop offset="1" stop-color="#FF9C00"/>
</linearGradient>
<linearGradient id="paint2_linear_7_3" x1="34.5233" y1="33.4427" x2="0.516382" y2="64.6028" gradientUnits="userSpaceOnUse">
<stop stop-color="#FF3A44"/>
<stop offset="1" stop-color="#C31162"/>
</linearGradient>
<linearGradient id="paint3_linear_7_3" x1="10.4296" y1="0.263801" x2="25.6161" y2="14.1789" gradientUnits="userSpaceOnUse">
<stop stop-color="#32A071"/>
<stop offset="0.069" stop-color="#2DA771"/>
<stop offset="0.476" stop-color="#15CF74"/>
<stop offset="0.801" stop-color="#06E775"/>
<stop offset="1" stop-color="#00F076"/>
</linearGradient>
</defs>
</svg>
